<svg width="390" height="2582" viewBox="0 0 390 2582" fill="none" xmlns="http://www.w3.org/2000/svg">
<g clip-path="url(#clip0_93_102)">
<rect width="390" height="2582" fill="#FBFAF7"/>
<path d="M283.372 1068.48C282.124 1146.33 167.989 1260.33 105.69 1259.09C33.2222 1257.65 -49.1209 1139.35 -47.7909 1056.44C-46.4609 973.533 25.3473 901.133 113.357 902.545C201.367 903.957 284.703 985.567 283.372 1068.48Z" fill="#F4F1E7"/>
<path fill-rule="evenodd" clip-rule="evenodd" d="M159.493 90.2712C172.368 103.327 193.055 111.412 196.12 129.49C199.188 147.586 183.282 162.548 174.477 178.653C165.992 194.175 161.797 214.336 145.711 221.698C129.73 229.011 112.14 217.28 94.6929 215.164C76.2892 212.932 56.1075 219.419 40.7928 208.972C24.415 197.8 12.1906 178.494 11.8759 158.671C11.5719 139.519 30.5746 126.828 39.2174 109.735C47.9014 92.5599 46.7901 69.5259 62.5413 58.4674C78.8071 47.0477 101.537 46.5297 120.421 52.7244C138.014 58.4957 146.493 77.0871 159.493 90.2712Z" fill="#EDE8D7"/>
<path fill-rule="evenodd" clip-rule="evenodd" d="M376.338 2070.9C444.131 1982.01 467.293 1826.6 579.012 1824.87C690.95 1823.14 721.613 1975.72 789.769 2064.5C857.286 2152.44 988.673 2219.24 965.011 2327.63C941.225 2436.58 799.091 2455.19 695.474 2496.43C603.114 2533.18 509.221 2581.43 416.431 2545.93C313.546 2506.57 218.087 2420.04 208.819 2310.24C200.206 2208.19 314.205 2152.36 376.338 2070.9Z" fill="#E61A6B"/>
</g>
<defs>
<clipPath id="clip0_93_102">
<rect width="390" height="2582" fill="white"/>
</clipPath>
</defs>
</svg>
