<svg width="1512" height="3024" viewBox="0 0 1512 3024" fill="none" xmlns="http://www.w3.org/2000/svg">
<g clip-path="url(#clip0_93_45)">
<rect width="1512" height="3024" fill="#FBFAF7"/>
<path opacity="0.5" fill-rule="evenodd" clip-rule="evenodd" d="M-572.582 2158.48C-434.972 1978.06 -387.958 1662.59 -161.184 1659.08C66.0346 1655.56 128.276 1965.29 266.622 2145.48C403.671 2323.99 670.367 2459.6 622.337 2679.6C574.054 2900.77 285.544 2938.54 75.2164 3022.24C-112.259 3096.84 -302.85 3194.79 -491.199 3122.73C-700.041 3042.83 -893.809 2867.2 -912.621 2644.31C-930.104 2437.16 -698.703 2323.84 -572.582 2158.48Z" fill="#EDE8D7"/>
<path fill-rule="evenodd" clip-rule="evenodd" d="M1275.34 2736.9C1343.13 2648.01 1366.29 2492.6 1478.01 2490.87C1589.95 2489.14 1620.61 2641.72 1688.77 2730.5C1756.29 2818.44 1887.67 2885.24 1864.01 2993.63C1840.22 3102.58 1698.09 3121.19 1594.47 3162.43C1502.11 3199.18 1408.22 3247.43 1315.43 3211.93C1212.55 3172.57 1117.09 3086.04 1107.82 2976.24C1099.21 2874.19 1213.21 2818.36 1275.34 2736.9Z" fill="#E61A6B"/>
<path opacity="0.5" fill-rule="evenodd" clip-rule="evenodd" d="M1416.42 979.479C1554.03 799.057 1601.04 483.595 1827.82 480.083C2055.03 476.565 2117.28 786.292 2255.62 966.485C2392.67 1144.99 2659.37 1280.6 2611.34 1500.6C2563.05 1721.77 2274.54 1759.54 2064.22 1843.24C1876.74 1917.84 1686.15 2015.79 1497.8 1943.73C1288.96 1863.83 1095.19 1688.2 1076.38 1465.31C1058.9 1258.16 1290.3 1144.84 1416.42 979.479Z" fill="#EDE8D7"/>
<path fill-rule="evenodd" clip-rule="evenodd" d="M543.415 216.339C572.659 245.995 619.649 264.36 626.61 305.423C633.579 346.529 597.449 380.514 577.45 417.096C558.175 452.354 548.647 498.15 512.109 514.87C475.808 531.482 435.853 504.836 396.222 500.029C354.419 494.958 308.577 509.694 273.79 485.964C236.588 460.588 208.821 416.734 208.106 371.708C207.415 328.205 250.579 299.378 270.211 260.55C289.937 221.538 287.412 169.217 323.191 144.098C360.138 118.159 411.767 116.982 454.662 131.053C494.626 144.162 513.883 186.392 543.415 216.339Z" fill="#F1EDDF"/>
</g>
<defs>
<clipPath id="clip0_93_45">
<rect width="1512" height="3024" fill="white"/>
</clipPath>
</defs>
</svg>
