<svg width="1145" height="272" viewBox="0 0 1145 272" fill="none" xmlns="http://www.w3.org/2000/svg">
<path d="M234.89 255.883C223.007 245.266 217.078 231.355 217.078 214.148C217.078 196.941 222.643 184.492 234.149 174.619C245.278 164.733 261.62 159.246 282.773 157.412L326.573 154.489C335.856 153.758 340.679 148.629 340.679 139.474C340.679 130.32 337.715 123.729 331.396 118.973C325.091 114.575 316.172 112.382 305.42 112.382C282.408 112.382 269.42 121.896 266.82 140.564H221.161C223.384 119.703 231.549 103.227 246.032 91.8802C260.502 80.533 280.185 75.0453 305.797 75.0453C331.409 75.0453 351.821 81.2638 366.304 93.7137C380.41 106.164 387.457 124.832 387.457 149.36V226.598H402.681V266.127H383.751C361.481 266.127 349.598 255.139 348.116 233.547C336.61 259.165 315.08 271.987 283.163 271.987C262.751 271.987 246.786 266.499 234.916 255.883H234.89ZM327.678 221.841C336.584 213.417 341.043 203.173 341.043 190.723V183.402L292.796 187.056C273.867 188.518 264.584 196.57 264.584 211.584C264.584 218.905 267.184 224.393 272.008 228.419C276.831 232.445 283.891 234.637 292.796 234.637C306.902 234.637 318.408 230.239 327.691 221.828L327.678 221.841Z" fill="#282828"/>
<path d="M425.302 127.768C425.302 112.754 429.385 101.048 437.926 92.9958C446.091 84.9437 457.974 80.9177 473.926 80.9177H534.797V120.447H472.808V266.14H425.302V127.768Z" fill="#282828"/>
<path d="M581.561 53.8256C573.02 53.8256 566.337 51.2613 560.773 46.1326C555.208 41.3757 552.608 34.7853 552.608 27.0923C552.608 19.3993 555.572 13.1807 561.15 7.69303C566.714 2.56434 573.397 0 581.561 0C589.726 0 596.785 2.56434 602.35 7.69303C607.914 13.1807 610.514 19.4121 610.514 27.0923C610.514 34.7725 607.914 41.3629 602.35 46.1326C596.785 51.2613 590.103 53.8256 581.561 53.8256ZM557.808 266.141V80.9179H605.314V266.141H557.808Z" fill="#282828"/>
<path d="M643.55 255.883C631.667 245.266 625.739 231.355 625.739 214.148C625.739 196.941 631.303 184.492 642.809 174.619C653.938 164.733 670.281 159.246 691.433 157.412L735.234 154.489C744.516 153.758 749.34 148.629 749.34 139.474C749.34 130.32 746.375 123.729 740.057 118.973C733.751 114.575 724.833 112.382 714.081 112.382C691.069 112.382 678.081 121.896 675.481 140.564H629.821C632.045 119.703 640.209 103.227 654.692 91.8802C669.162 80.533 688.846 75.0453 714.458 75.0453C740.07 75.0453 760.482 81.2638 774.965 93.7137C789.071 106.164 796.117 124.832 796.117 149.36V226.598H811.342V266.127H792.412C770.141 266.127 758.258 255.139 756.776 233.547C745.27 259.165 723.741 271.987 691.823 271.987C671.412 271.987 655.446 266.499 643.576 255.883H643.55ZM736.352 221.841C745.257 213.417 749.717 203.173 749.717 190.723V183.402L701.47 187.056C682.54 188.518 673.258 196.57 673.258 211.584C673.258 218.905 675.858 224.393 680.681 228.419C685.505 232.445 692.564 234.637 701.47 234.637C715.576 234.637 727.082 230.239 736.365 221.828L736.352 221.841Z" fill="#282828"/>
<path d="M962.023 157.412C962.023 129.589 950.517 115.677 927.506 115.677C913.776 115.677 902.635 120.434 894.847 129.948C886.682 139.833 882.6 154.476 882.6 173.875V266.127H835.094V80.9177H878.154V108.01C890.401 86.0464 910.448 75.071 939.025 75.071C960.918 75.071 978.366 81.6613 990.99 94.4702C1003.24 107.651 1009.54 125.589 1009.54 148.642V266.153H962.036V157.438L962.023 157.412Z" fill="#282828"/>
<path d="M1123.48 266.14C1101.59 266.14 1084.51 260.281 1072.64 248.933C1060.39 237.586 1054.45 221.841 1054.45 201.352V120.447H1020.29V80.9174H1042.19C1052.21 80.9174 1057.41 76.1606 1057.41 66.275V24.5403H1100.84V80.9174H1140.18V120.447H1101.94V215.622C1101.94 222.944 1105.65 226.598 1113.45 226.598H1145V266.127H1123.47L1123.48 266.14Z" fill="#282828"/>
<path d="M89.083 248.241L0 9.88544H52.3291L123.783 208.596L194.872 9.88544H247.955L158.157 248.331C152.801 262.563 139.033 272 123.64 272C108.22 272 94.4264 262.512 89.096 248.241H89.083Z" fill="#282828"/>
</svg>
