<?xml version="1.0" encoding="UTF-8"?>
<svg width="886px" height="189px" viewBox="0 0 886 189" version="1.1" xmlns="http://www.w3.org/2000/svg" xmlns:xlink="http://www.w3.org/1999/xlink">
    <g id="Page-1" stroke="none" stroke-width="1" fill="none" fill-rule="evenodd">
        <g id="variant.1" fill="#33333D" fill-rule="nonzero">
            <path d="M143.792201,63.514 L74.848201,187.502 L73.736201,187.502 L0.900200981,63.514 L47.048201,63.514 L75.404201,121.338 L100.424201,63.514 L143.792201,63.514 Z M282.529286,63.514 L282.529286,185 L243.609286,185 L243.609286,169.988 C231.933228,182.220061 218.40403,188.336 203.021286,188.336 C185.043863,188.336 170.449009,182.961387 159.236286,172.212 C148.023564,161.462613 142.417286,145.524106 142.417286,124.396 C142.417286,111.051933 145.150926,99.3297172 150.618286,89.229 C156.085647,79.1282828 163.359908,71.2980278 172.441286,65.738 C181.522665,60.1779722 191.252568,57.398 201.631286,57.398 C212.380673,57.398 220.905922,59.0196504 227.207286,62.263 C233.508651,65.5063495 239.068596,70.0933037 243.887286,76.024 L246.389286,63.514 L282.529286,63.514 Z M214.141286,156.644 C227.670687,156.644 237.493256,150.528061 243.609286,138.296 L243.609286,108.55 C241.385275,102.619304 237.539647,97.8933509 232.072286,94.372 C226.604926,90.8506491 220.164657,89.09 212.751286,89.09 C204.22591,89.09 196.95165,92.2406352 190.928286,98.542 C184.904923,104.843365 181.893286,112.812618 181.893286,122.45 C181.893286,128.751365 183.375938,134.542974 186.341286,139.825 C189.306635,145.107026 193.244929,149.230652 198.156286,152.196 C203.067644,155.161348 208.395924,156.644 214.141286,156.644 Z M351.488372,91.314 C354.824389,84.8273009 359.411343,78.9893593 365.249372,73.8 C371.087401,68.6106407 377.064341,64.579681 383.180372,61.707 C389.296402,58.834319 394.115021,57.398 397.636372,57.398 L395.690372,96.318 C394.578366,96.1326657 393.003049,96.04 390.964372,96.04 C383.180333,96.04 376.323068,98.0786463 370.392372,102.156 C364.461676,106.233354 359.921054,111.468968 356.770372,117.863 C353.619689,124.257032 352.044372,130.789967 352.044372,137.462 L352.044372,185 L313.402372,185 L313.402372,63.514 L348.430372,63.514 L351.488372,91.314 Z M457.143457,63.514 L457.143457,185 L418.223457,185 L418.223457,63.514 L457.143457,63.514 Z M417.389457,20.424 C417.389457,14.8639722 419.567102,10.1843523 423.922457,6.385 C428.277812,2.58564767 433.235429,0.686 438.795457,0.686 C444.170151,0.686 448.988769,2.58564767 453.251457,6.385 C457.514145,10.1843523 459.645457,14.8639722 459.645457,20.424 C459.645457,25.9840278 457.514145,30.6173148 453.251457,34.324 C448.988769,38.0306852 444.170151,39.884 438.795457,39.884 C433.235429,39.884 428.277812,38.0306852 423.922457,34.324 C419.567102,30.6173148 417.389457,25.9840278 417.389457,20.424 Z M618.676543,63.514 L618.676543,185 L579.756543,185 L579.756543,169.988 C568.080484,182.220061 554.551286,188.336 539.168543,188.336 C521.191119,188.336 506.596265,182.961387 495.383543,172.212 C484.17082,161.462613 478.564543,145.524106 478.564543,124.396 C478.564543,111.051933 481.298182,99.3297172 486.765543,89.229 C492.232903,79.1282828 499.507164,71.2980278 508.588543,65.738 C517.669921,60.1779722 527.399824,57.398 537.778543,57.398 C548.52793,57.398 557.053178,59.0196504 563.354543,62.263 C569.655908,65.5063495 575.215852,70.0933037 580.034543,76.024 L582.536543,63.514 L618.676543,63.514 Z M550.288543,156.644 C563.817944,156.644 573.640512,150.528061 579.756543,138.296 L579.756543,108.55 C577.532532,102.619304 573.686903,97.8933509 568.219543,94.372 C562.752182,90.8506491 556.311913,89.09 548.898543,89.09 C540.373167,89.09 533.098906,92.2406352 527.075543,98.542 C521.052179,104.843365 518.040543,112.812618 518.040543,122.45 C518.040543,128.751365 519.523195,134.542974 522.488543,139.825 C525.453891,145.107026 529.392185,149.230652 534.303543,152.196 C539.214901,155.161348 544.543181,156.644 550.288543,156.644 Z M734.061628,57.676 C745.552352,57.676 755.143256,61.1046324 762.834628,67.962 C770.526,74.8193676 774.464294,83.5299472 774.649628,94.094 L774.649628,185 L735.729628,185 L735.729628,108.55 C735.173625,96.6886074 729.243018,90.758 717.937628,90.758 C709.041584,90.758 701.906322,94.9279583 696.531628,103.268 C691.156935,111.608042 688.469628,122.357268 688.469628,135.516 L688.469628,185 L649.549628,185 L649.549628,63.514 L684.855628,63.514 L687.635628,82.974 C692.08365,75.0046268 698.245922,68.7960222 706.122628,64.348 C713.999334,59.8999778 723.312241,57.676 734.061628,57.676 Z M855.840714,10.138 L855.840714,62.958 L885.308714,62.958 L885.308714,93.26 L855.840714,93.26 L855.840714,185 L816.920714,185 L816.920714,93.26 L798.016714,93.26 L798.016714,62.958 L816.920714,62.958 L816.920714,10.138 L855.840714,10.138 Z" id="path-1"></path>
        </g>
    </g>
</svg>